<svg width="41" height="44" viewBox="0 0 41 44" fill="none" xmlns="http://www.w3.org/2000/svg">
<path d="M14.6429 9.625C14.6429 6.59141 17.2694 4.125 20.5 4.125C23.7306 4.125 26.3571 6.59141 26.3571 9.625V13.75H14.6429V9.625ZM10.25 13.75H4.39286C1.96763 13.75 0 15.5977 0 17.875V35.75C0 40.3047 3.93527 44 8.78571 44H32.2143C37.0647 44 41 40.3047 41 35.75V17.875C41 15.5977 39.0324 13.75 36.6071 13.75H30.75V9.625C30.75 4.30547 26.165 0 20.5 0C14.835 0 10.25 4.30547 10.25 9.625V13.75ZM12.4464 17.875C13.029 17.875 13.5876 18.0923 13.9995 18.4791C14.4114 18.8659 14.6429 19.3905 14.6429 19.9375C14.6429 20.4845 14.4114 21.0091 13.9995 21.3959C13.5876 21.7827 13.029 22 12.4464 22C11.8639 22 11.3052 21.7827 10.8933 21.3959C10.4814 21.0091 10.25 20.4845 10.25 19.9375C10.25 19.3905 10.4814 18.8659 10.8933 18.4791C11.3052 18.0923 11.8639 17.875 12.4464 17.875ZM26.3571 19.9375C26.3571 19.3905 26.5886 18.8659 27.0005 18.4791C27.4124 18.0923 27.971 17.875 28.5536 17.875C29.1361 17.875 29.6948 18.0923 30.1067 18.4791C30.5186 18.8659 30.75 19.3905 30.75 19.9375C30.75 20.4845 30.5186 21.0091 30.1067 21.3959C29.6948 21.7827 29.1361 22 28.5536 22C27.971 22 27.4124 21.7827 27.0005 21.3959C26.5886 21.0091 26.3571 20.4845 26.3571 19.9375Z" fill="#1C61A5"/>
</svg>
