<svg width="65" height="64" viewBox="0 0 65 64" fill="none" xmlns="http://www.w3.org/2000/svg">
<path d="M64.8333 10C64.8333 12.25 63.0458 14.325 60.0333 16C56.3958 18.0125 50.9708 19.4375 44.7458 19.8625C44.2833 19.6375 43.8208 19.425 43.3333 19.2375C38.4083 17.175 31.8583 16 24.8333 16C23.7958 16 22.7833 16.025 21.7708 16.075L21.6333 16C18.6208 14.325 16.8333 12.25 16.8333 10C16.8333 4.475 27.5833 0 40.8333 0C54.0833 0 64.8333 4.475 64.8333 10ZM20.9208 20.1375C22.1958 20.05 23.5083 20 24.8333 20C32.6083 20 39.5083 21.5375 43.8958 23.925C46.9958 25.6125 48.8333 27.7125 48.8333 30C48.8333 30.5 48.7458 30.9875 48.5708 31.4625C47.9958 33.1125 46.4458 34.625 44.1958 35.9C44.1833 35.9125 44.1583 35.9125 44.1458 35.925C44.1083 35.95 44.0708 35.9625 44.0333 35.9875C39.6583 38.4125 32.6833 39.9875 24.8333 39.9875C17.3833 39.9875 10.7208 38.575 6.30833 36.35C6.07083 36.2375 5.84583 36.1125 5.62083 35.9875C2.62083 34.325 0.833328 32.25 0.833328 30C0.833328 25.65 7.50833 21.9375 16.8333 20.575C18.1458 20.3875 19.5083 20.2375 20.9208 20.1375ZM52.8333 30C52.8333 27.2625 51.5083 25.0125 49.8208 23.325C53.3583 22.775 56.5958 21.9 59.3458 20.7625C61.3833 19.9125 63.2833 18.8625 64.8333 17.575V22C64.8333 24.4125 62.7708 26.6375 59.3583 28.3625C57.5333 29.2875 55.3083 30.075 52.8083 30.675C52.8208 30.45 52.8333 30.2375 52.8333 30.0125V30ZM48.8333 42C48.8333 44.25 47.0458 46.325 44.0333 48C43.8083 48.125 43.5833 48.2375 43.3458 48.3625C38.9458 50.5875 32.2833 52 24.8333 52C16.9833 52 10.0083 50.425 5.63333 48C2.62083 46.325 0.833328 44.25 0.833328 42V37.575C2.39583 38.8625 4.28333 39.9125 6.32083 40.7625C11.2583 42.825 17.8083 44 24.8333 44C31.8583 44 38.4083 42.825 43.3458 40.7625C44.3208 40.3625 45.2583 39.9 46.1458 39.4C46.9083 38.975 47.6208 38.5 48.2958 38C48.4833 37.8625 48.6583 37.7125 48.8333 37.575V38V38.7125V42ZM52.8333 42V38V34.7625C55.2083 34.2375 57.3958 33.575 59.3458 32.7625C61.3833 31.9125 63.2833 30.8625 64.8333 29.575V34C64.8333 35.3125 64.2083 36.625 62.9708 37.8625C60.9333 39.9 57.3458 41.575 52.8083 42.6625C52.8208 42.45 52.8333 42.225 52.8333 42ZM24.8333 56C31.8583 56 38.4083 54.825 43.3458 52.7625C45.3833 51.9125 47.2833 50.8625 48.8333 49.575V54C48.8333 59.525 38.0833 64 24.8333 64C11.5833 64 0.833328 59.525 0.833328 54V49.575C2.39583 50.8625 4.28333 51.9125 6.32083 52.7625C11.2583 54.825 17.8083 56 24.8333 56Z" fill="#1D65AD"/>
</svg>
