<svg width="80" height="64" viewBox="0 0 80 64" fill="none" xmlns="http://www.w3.org/2000/svg">
<path d="M79.0833 0V50C79.0833 57.7375 72.8208 64 65.0833 64C57.4583 64 51.2708 57.9125 51.0833 50.3375L5.13332 62.8625C2.99582 63.4375 0.80832 62.1875 0.22082 60.05C-0.36668 57.9125 0.89582 55.725 3.03332 55.1375L43.0833 44.225V8C43.0833 3.5875 46.6708 0 51.0833 0H79.0833ZM71.0833 50C71.0833 48.4087 70.4512 46.8826 69.326 45.7574C68.2007 44.6321 66.6746 44 65.0833 44C63.492 44 61.9659 44.6321 60.8407 45.7574C59.7155 46.8826 59.0833 48.4087 59.0833 50C59.0833 51.5913 59.7155 53.1174 60.8407 54.2426C61.9659 55.3679 63.492 56 65.0833 56C66.6746 56 68.2007 55.3679 69.326 54.2426C70.4512 53.1174 71.0833 51.5913 71.0833 50ZM1.97082 25.9625C1.39582 23.825 2.67082 21.6375 4.79582 21.0625L10.5958 19.5125L13.1833 29.175C13.4708 30.2375 14.5708 30.875 15.6333 30.5875L19.4958 29.55C20.5583 29.2625 21.1958 28.1625 20.9083 27.1L18.3208 17.4375L24.1208 15.8875C26.2583 15.3125 28.4458 16.5875 29.0208 18.7125L34.1958 38.025C34.7708 40.1625 33.4958 42.35 31.3708 42.925L12.0458 48.1125C9.90832 48.6875 7.72082 47.4125 7.14582 45.2875L1.97082 25.9625Z" fill="#1D65AD"/>
</svg>
