<?xml version="1.0" standalone="no"?>
<!DOCTYPE svg PUBLIC "-//W3C//DTD SVG 20010904//EN"
 "http://www.w3.org/TR/2001/REC-SVG-20010904/DTD/svg10.dtd">
<svg version="1.0" xmlns="http://www.w3.org/2000/svg"
 width="61.000000pt" height="64.000000pt" viewBox="0 0 61.000000 64.000000"
 preserveAspectRatio="xMidYMid meet">

<g transform="translate(0.000000,64.000000) scale(0.100000,-0.100000)"
fill="#000000" stroke="none">
<path d="M258 605 c-31 -35 -34 -36 -84 -29 -59 7 -65 2 -74 -61 -4 -35 -10
-42 -47 -60 -53 -25 -58 -39 -33 -82 25 -43 25 -68 -1 -104 -27 -38 -18 -60
33 -84 38 -18 44 -25 48 -60 9 -63 15 -68 74 -61 49 7 53 5 86 -29 18 -19 40
-35 47 -35 7 0 27 16 45 35 31 35 34 36 84 29 59 -7 65 -2 74 61 4 35 10 42
47 60 53 25 58 39 33 82 -25 43 -25 68 1 104 27 38 18 60 -33 84 -38 18 -44
25 -48 60 -9 63 -15 68 -74 61 -49 -7 -53 -5 -86 29 -18 19 -40 35 -47 35 -7
0 -27 -16 -45 -35z m24 -132 c22 -20 23 -70 1 -95 -20 -22 -70 -23 -95 -1 -22
20 -23 70 -1 95 20 22 70 23 95 1z m151 -37 c7 -17 -212 -236 -236 -236 -37 0
-13 39 90 142 103 104 135 124 146 94z m-11 -173 c22 -20 23 -70 1 -95 -20
-22 -70 -23 -95 -1 -22 20 -23 70 -1 95 20 22 70 23 95 1z"/>
<path d="M214 435 c-4 -9 -2 -21 4 -27 15 -15 44 -1 40 19 -4 23 -36 29 -44 8z"/>
<path d="M354 225 c-4 -9 -2 -21 4 -27 15 -15 44 -1 40 19 -4 23 -36 29 -44 8z"/>
</g>
</svg>
