<svg width="30" height="30" viewBox="0 0 30 30" fill="none" xmlns="http://www.w3.org/2000/svg">
<path d="M19.6094 0H10.4062C1.99997 0 0 1.99997 0 10.3906V19.5938C0 27.9999 1.98441 30 10.3906 30H19.5938C28 30 30 28.0156 30 19.6093V10.4062C30 1.99997 28.0156 0 19.6094 0ZM24.2187 21.4062H22.0312C21.2032 21.4062 20.9531 20.7343 19.4688 19.25C18.1718 18 17.625 17.8437 17.2969 17.8437C16.8438 17.8437 16.7187 17.9687 16.7187 18.5937V20.5625C16.7187 21.0938 16.5469 21.4062 15.1563 21.4062C13.8069 21.3155 12.4983 20.9056 11.3383 20.2102C10.1784 19.5147 9.20019 18.5537 8.48438 17.4062C6.78503 15.2911 5.60266 12.8086 5.03128 10.1562C5.03128 9.82809 5.15625 9.53119 5.78128 9.53119H7.96875C8.53125 9.53119 8.73441 9.78121 8.95312 10.3594C10.0156 13.4843 11.8282 16.2031 12.5625 16.2031C12.8438 16.2031 12.9687 16.0781 12.9687 15.375V12.1562C12.875 10.6875 12.0938 10.5624 12.0938 10.0312C12.104 9.8911 12.1685 9.76048 12.2736 9.66712C12.3786 9.57375 12.5159 9.52499 12.6562 9.53119H16.0938C16.5625 9.53119 16.7187 9.76557 16.7187 10.3281V14.6719C16.7187 15.1406 16.9219 15.2968 17.0625 15.2968C17.3438 15.2968 17.5625 15.1406 18.0781 14.625C19.1861 13.2738 20.0915 11.7684 20.7656 10.1562C20.8344 9.96223 20.9649 9.79611 21.137 9.68324C21.3091 9.57038 21.5135 9.51697 21.7188 9.53119H23.9062C24.5625 9.53119 24.7031 9.85932 24.5625 10.3281C23.7666 12.1105 22.7818 13.8025 21.625 15.375C21.3907 15.7343 21.2969 15.9218 21.625 16.3437C21.8438 16.6718 22.6094 17.3124 23.125 17.9218C23.875 18.6699 24.4978 19.5355 24.9687 20.4844C25.1562 21.0938 24.8437 21.4062 24.2187 21.4062Z" fill="white"/>
</svg>
