<svg width="30" height="30" viewBox="0 0 30 30" fill="none" xmlns="http://www.w3.org/2000/svg">
<path d="M30 6.825C29.9831 6.17786 29.9331 5.53201 29.85 4.89C29.738 4.32769 29.5513 3.78286 29.295 3.27C29.0269 2.71366 28.6668 2.20654 28.23 1.77C27.7891 1.33831 27.2829 0.978886 26.73 0.705C26.2165 0.453666 25.6716 0.27206 25.11 0.165C24.4741 0.0697491 23.8328 0.0146401 23.19 0H6.825C6.17786 0.0168546 5.53201 0.0669203 4.89 0.15C4.32769 0.262003 3.78286 0.448655 3.27 0.705C2.71366 0.973105 2.20654 1.33316 1.77 1.77C1.33831 2.21087 0.978886 2.71709 0.705 3.27C0.453666 3.78355 0.27206 4.32836 0.165 4.89C0.0697491 5.5259 0.0146401 6.16717 0 6.81C0 7.095 0 7.5 0 7.62V22.38C0 22.545 0 22.905 0 23.175C0.0168546 23.8221 0.0669203 24.468 0.15 25.11C0.262003 25.6723 0.448655 26.2171 0.705 26.73C0.973105 27.2863 1.33316 27.7935 1.77 28.23C2.21087 28.6617 2.71709 29.0211 3.27 29.295C3.78355 29.5463 4.32836 29.7279 4.89 29.835C5.5259 29.9303 6.16717 29.9854 6.81 30H23.175C23.8221 29.9831 24.468 29.9331 25.11 29.85C25.6723 29.738 26.2171 29.5513 26.73 29.295C27.2863 29.0269 27.7935 28.6668 28.23 28.23C28.6617 27.7891 29.0211 27.2829 29.295 26.73C29.5463 26.2165 29.7279 25.6716 29.835 25.11C29.9303 24.4741 29.9854 23.8328 30 23.19C30 22.905 30 22.545 30 22.38V7.62C30 7.5 30 7.095 30 6.825ZM15.345 25.5C13.5436 25.4911 11.7737 25.0267 10.2 24.15L4.5 25.65L6 20.07C5.03267 18.4447 4.51498 16.5913 4.5 14.7C4.50597 12.5744 5.1408 10.4981 6.32454 8.73256C7.50828 6.96705 9.18798 5.5913 11.1521 4.77857C13.1162 3.96585 15.2769 3.75251 17.362 4.16541C19.4472 4.57831 21.3635 5.59899 22.8696 7.09891C24.3758 8.59882 25.4045 10.5109 25.826 12.5943C26.2476 14.6777 26.0432 16.8392 25.2387 18.8067C24.4341 20.7742 23.0654 22.4596 21.3048 23.6507C19.5442 24.8417 17.4706 25.4852 15.345 25.5ZM15.345 5.805C13.7547 5.8232 12.1976 6.26248 10.8323 7.07811C9.46702 7.89374 8.34222 9.05659 7.57244 10.4483C6.80267 11.84 6.41542 13.4108 6.45013 15.0008C6.48483 16.5908 6.94024 18.1432 7.77 19.5L7.98 19.845L7.08 23.13L10.5 22.2L10.83 22.395C12.1944 23.1986 13.7466 23.6281 15.33 23.64C17.7169 23.64 20.0061 22.6918 21.694 21.004C23.3818 19.3161 24.33 17.0269 24.33 14.64C24.33 12.2531 23.3818 9.96387 21.694 8.27604C20.0061 6.58821 17.7169 5.64 15.33 5.64L15.345 5.805ZM20.595 18.585C20.3985 18.9127 20.1355 19.1955 19.8228 19.4151C19.5102 19.6348 19.1549 19.7863 18.78 19.86C18.2198 19.9624 17.6431 19.9263 17.1 19.755C16.589 19.5952 16.0881 19.4049 15.6 19.185C13.7456 18.2545 12.1642 16.8591 11.01 15.135C10.3828 14.3362 10.0023 13.3718 9.915 12.36C9.90607 11.9397 9.98558 11.5222 10.1484 11.1346C10.3112 10.747 10.5536 10.3979 10.86 10.11C10.9502 10.0077 11.061 9.92544 11.185 9.8686C11.309 9.81175 11.4436 9.78157 11.58 9.78H12C12.165 9.78 12.39 9.78 12.6 10.245C12.81 10.71 13.365 12.105 13.44 12.24C13.4769 12.312 13.4961 12.3917 13.4961 12.4725C13.4961 12.5533 13.4769 12.633 13.44 12.705C13.3737 12.868 13.2826 13.0198 13.17 13.155C13.035 13.32 12.885 13.515 12.765 13.635C12.645 13.755 12.495 13.905 12.645 14.175C13.0531 14.8638 13.5583 15.4902 14.145 16.035C14.7839 16.5995 15.5144 17.051 16.305 17.37C16.575 17.505 16.74 17.49 16.89 17.37C17.04 17.25 17.565 16.59 17.745 16.32C17.925 16.05 18.105 16.095 18.345 16.185C18.585 16.275 19.92 16.92 20.19 17.055C20.46 17.19 20.625 17.25 20.7 17.37C20.7651 17.7626 20.7289 18.1653 20.595 18.54V18.585Z" fill="white"/>
</svg>
