<svg width="50" height="50" viewBox="0 0 50 50" fill="none" xmlns="http://www.w3.org/2000/svg">
<path id="Star 1" d="M25 0L28.473 5.30385L33.5505 1.50768L35 7.67949L41.0697 5.84889L40.3209 12.1442L46.6506 12.5L43.7939 18.1596L49.6202 20.6588L45 25L49.6202 29.3412L43.7939 31.8404L46.6506 37.5L40.3209 37.8558L41.0697 44.1511L35 42.3205L33.5505 48.4923L28.473 44.6962L25 50L21.527 44.6962L16.4495 48.4923L15 42.3205L8.93031 44.1511L9.67911 37.8558L3.34937 37.5L6.20615 31.8404L0.379807 29.3412L5 25L0.379807 20.6588L6.20615 18.1596L3.34937 12.5L9.67911 12.1442L8.93031 5.84889L15 7.67949L16.4495 1.50768L21.527 5.30385L25 0Z" fill="#1976D2"/>
</svg>
